<svg width="913" height="1090" viewBox="0 0 913 1090" fill="none" xmlns="http://www.w3.org/2000/svg">
<path fill-rule="evenodd" clip-rule="evenodd" d="M450.277 28.6285C513.504 31.169 583.823 4.9078 637.473 38.4551C691.754 72.3968 694.254 150.925 730.377 203.775C763.59 252.367 813.536 286.206 842.016 337.714C875.835 398.878 919.672 463.033 912.147 532.515C904.631 601.919 829.975 643.586 801.965 707.532C763.344 795.702 804.959 941.906 716.346 979.525C625.305 1018.17 547.895 840.918 450.277 856.833C323.845 877.445 233.578 1159.91 138.864 1073.67C26.5523 971.411 235.611 775.055 198.665 627.736C180.636 555.843 20.7001 601.146 2.35114 529.333C-15.7251 458.588 74.6614 402.885 128.649 353.714C168.227 317.668 252.087 334.362 271.288 284.395C302.983 201.917 205.031 95.5088 255.693 23.1149C293.365 -30.717 384.619 25.9903 450.277 28.6285Z" fill="#2962FF"/>
</svg>
