<svg width="360" height="245" viewBox="0 0 360 245" fill="none" xmlns="http://www.w3.org/2000/svg">
<path fill-rule="evenodd" clip-rule="evenodd" d="M156.513 681.615C197.025 679.983 242.082 696.848 276.458 675.304C311.238 653.507 312.84 603.076 335.985 569.136C357.266 537.929 389.269 516.198 407.518 483.119C429.187 443.84 457.275 402.639 452.454 358.018C447.638 313.447 399.802 286.688 381.855 245.622C357.109 188.999 383.773 95.1061 326.995 70.9471C268.661 46.1263 219.061 159.961 156.513 149.74C75.5019 136.503 17.6638 -44.8969 -43.0238 10.4858C-114.987 76.1583 18.9664 202.258 -4.70622 296.867C-16.2587 343.037 -118.737 313.943 -130.494 360.061C-142.076 405.494 -84.1611 441.267 -49.5685 472.844C-24.2093 495.993 29.5233 485.272 41.8264 517.361C62.1346 570.328 -0.627701 638.664 31.834 685.156C55.9724 719.727 114.443 683.309 156.513 681.615Z" fill="#2962FF"/>
</svg>
