<svg width="578" height="480" viewBox="0 0 578 480" fill="none" xmlns="http://www.w3.org/2000/svg">
<path fill-rule="evenodd" clip-rule="evenodd" d="M283.185 11.7386C314.783 11.1932 358.689 2.78963 375.04 29.8338C396.52 65.3601 333.486 130.137 368.375 152.637C425.431 189.433 520.021 108.72 569.482 155.228C603.262 186.993 526.906 238.578 491.089 268.026C462.635 291.42 402.71 270.453 388.172 304.298C365.847 356.271 442.618 429.944 403.847 471.131C373.135 503.756 326.605 426.883 283.185 415.826C252.336 407.97 220.702 415.392 188.885 416.39C134.651 418.092 62.1611 466.236 28.3166 423.824C-5.52111 381.422 73.0293 323.171 71.2274 268.952C69.8796 228.393 27.3632 200.228 19.5623 160.404C9.8862 111.007 -19.7953 41.1144 20.7563 11.2941C67.9256 -23.3926 134.294 32.8792 192.844 32.9783C224.171 33.0314 251.862 12.2792 283.185 11.7386Z" fill="#2962FF"/>
</svg>
