<svg width="1271" height="1093" viewBox="0 0 1271 1093" fill="none" xmlns="http://www.w3.org/2000/svg">
<path fill-rule="evenodd" clip-rule="evenodd" d="M641.426 364.378C680.245 393.769 731.687 406.686 782.026 408.219C896.629 411.71 1016.44 331.305 1118.65 378.914C1212.36 422.567 1245.9 535.935 1260.82 631.25C1276.71 732.72 1283.96 856.659 1204.82 929.152C1122.5 1004.56 979.38 959.352 868.176 990.94C786.93 1014.02 722.225 1113.55 641.426 1089.19C551.48 1062.07 576.137 905.599 487.111 876.039C366.035 835.838 202.167 994.394 109.431 912.55C30.5315 842.917 227.191 730.321 209.746 631.25C186.778 500.816 -6.98567 424.147 0.194602 292.191C6.95932 167.872 109.151 -14.2944 244.046 0.891505C433.079 22.1719 494.638 253.238 641.426 364.378Z" fill="#151515"/>
</svg>
