<svg width="146" height="19" viewBox="0 0 146 19" fill="none" xmlns="http://www.w3.org/2000/svg">
<path d="M19.3848 7.05998C19.3848 8.45277 19.0468 9.62942 18.3708 10.59C17.7104 11.5506 16.5705 12.2469 14.9512 12.6791C15.1399 12.9353 15.2736 13.1354 15.3521 13.2794L19.1726 18.6826H12.758C12.0662 17.3698 10.9735 15.5128 9.47998 13.1113H6.01326V18.6826H0.447632C0.573446 15.5768 0.636299 12.6711 0.636299 9.96561C0.636299 7.26009 0.573446 4.35446 0.447632 1.2487H6.01326V1.27273H10.8478C14.0236 1.27273 16.2405 1.79301 17.4982 2.8336C18.756 3.87418 19.3848 5.28298 19.3848 7.05998ZM6.01326 5.88331V8.62086H9.19692C10.5333 8.62086 11.5395 8.58084 12.2156 8.50079C12.9073 8.40474 13.3869 8.26066 13.6541 8.06855C13.9215 7.87644 14.055 7.59628 14.055 7.22808C14.055 6.87588 13.9293 6.60372 13.6777 6.41161C13.4262 6.2195 12.9546 6.08344 12.2627 6.00339C11.5709 5.92334 10.549 5.88331 9.19692 5.88331H6.01326Z" fill="#151515"/>
<path d="M24.8799 12.6791C25.0056 13.3836 25.3122 13.9599 25.7996 14.4081C26.3027 14.8403 27.0102 15.0564 27.9221 15.0564C28.5824 15.0564 29.2034 14.9284 29.7851 14.6722C30.3668 14.4001 30.8307 14.0239 31.1765 13.5437C32.2299 14.0719 33.6292 14.6402 35.3743 15.2486C34.8869 16.3692 33.9987 17.2658 32.7094 17.9381C31.436 18.5944 29.7694 18.9227 27.7098 18.9227C25.0371 18.9227 23.0561 18.2983 21.7669 17.0496C20.4934 15.7849 19.8567 14.128 19.8567 12.0788C19.8567 10.0777 20.4934 8.45277 21.7669 7.20406C23.0404 5.95536 25.0214 5.331 27.7098 5.331C29.3135 5.331 30.7049 5.60316 31.884 6.14747C33.0632 6.69177 33.9672 7.4522 34.5961 8.42875C35.2249 9.38929 35.5394 10.4939 35.5394 11.7427C35.5394 12.1589 35.5237 12.471 35.4923 12.6791H24.8799ZM28.04 8.95705C27.2539 8.95705 26.6093 9.10914 26.1062 9.4133C25.6031 9.71748 25.2494 10.1337 25.045 10.662H30.6105C30.4218 10.1497 30.1153 9.74149 29.6908 9.43732C29.2663 9.11713 28.7161 8.95705 28.04 8.95705Z" fill="#151515"/>
<path d="M41.9684 12.6791C42.0941 13.3836 42.4007 13.9599 42.888 14.4081C43.3912 14.8403 44.0987 15.0564 45.0105 15.0564C45.6709 15.0564 46.2919 14.9284 46.8736 14.6722C47.4553 14.4001 47.9191 14.0239 48.265 13.5437C49.3184 14.0719 50.7177 14.6402 52.4628 15.2486C51.9754 16.3692 51.0872 17.2658 49.7979 17.9381C48.5245 18.5944 46.8579 18.9227 44.7983 18.9227C42.1255 18.9227 40.1446 18.2983 38.8554 17.0496C37.5819 15.7849 36.9452 14.128 36.9452 12.0788C36.9452 10.0777 37.5819 8.45277 38.8554 7.20406C40.1289 5.95536 42.1098 5.331 44.7983 5.331C46.402 5.331 47.7934 5.60316 48.9725 6.14747C50.1517 6.69177 51.0557 7.4522 51.6846 8.42875C52.3134 9.38929 52.6279 10.4939 52.6279 11.7427C52.6279 12.1589 52.6122 12.471 52.5807 12.6791H41.9684ZM45.1285 8.95705C44.3424 8.95705 43.6978 9.10914 43.1947 9.4133C42.6915 9.71748 42.3379 10.1337 42.1335 10.662H47.699C47.5103 10.1497 47.2038 9.74149 46.7794 9.43732C46.3548 9.11713 45.8046 8.95705 45.1285 8.95705Z" fill="#151515"/>
<path d="M68.8429 5.57114C67.1449 10.2298 65.6356 14.6002 64.3149 18.6826H56.9334C55.5185 14.3121 54.0013 9.9416 52.382 5.57114H57.9239L60.6595 15.4647L63.3716 5.57114H68.8429Z" fill="#151515"/>
<path d="M73.4048 12.6791C73.5305 13.3836 73.8371 13.9599 74.3244 14.4081C74.8276 14.8403 75.5351 15.0564 76.4469 15.0564C77.1073 15.0564 77.7283 14.9284 78.31 14.6722C78.8917 14.4001 79.3555 14.0239 79.7014 13.5437C80.7548 14.0719 82.1541 14.6402 83.8992 15.2486C83.4118 16.3692 82.5236 17.2658 81.2343 17.9381C79.9608 18.5944 78.2943 18.9227 76.2347 18.9227C73.5619 18.9227 71.581 18.2983 70.2918 17.0496C69.0183 15.7849 68.3816 14.128 68.3816 12.0788C68.3816 10.0777 69.0183 8.45277 70.2918 7.20406C71.5653 5.95536 73.5462 5.331 76.2347 5.331C77.8384 5.331 79.2298 5.60316 80.4089 6.14747C81.5881 6.69177 82.4921 7.4522 83.121 8.42875C83.7498 9.38929 84.0643 10.4939 84.0643 11.7427C84.0643 12.1589 84.0486 12.471 84.0171 12.6791H73.4048ZM76.5649 8.95705C75.7788 8.95705 75.1342 9.10914 74.6311 9.4133C74.1279 9.71748 73.7743 10.1337 73.5699 10.662H79.1354C78.9467 10.1497 78.6402 9.74149 78.2157 9.43732C77.7912 9.11713 77.2409 8.95705 76.5649 8.95705Z" fill="#151515"/>
<path d="M91.1771 9.12514C91.8372 6.70778 93.4806 5.4991 96.106 5.4991C96.5621 5.4991 97.0018 5.53112 97.4263 5.59516L96.6723 10.9742C95.5396 10.5419 94.6121 10.3258 93.8887 10.3258C92.9928 10.3258 92.3326 10.598 91.9082 11.1423C91.4837 11.6866 91.2709 12.415 91.2709 13.3276V13.3034L91.248 14.8883C91.248 16.025 91.2796 17.2898 91.3418 18.6826H85.7058C85.8313 16.3772 85.8946 14.2 85.8946 12.1509C85.8946 10.1017 85.8313 7.90846 85.7058 5.57114C86.7435 5.61917 87.5379 5.64318 88.0879 5.64318C88.6695 5.64318 89.4639 5.61917 90.47 5.57114L91.1771 9.12514Z" fill="#151515"/>
<path d="M109.552 5.331C110.605 5.331 111.541 5.65919 112.358 6.31556C113.192 6.95592 113.836 7.8124 114.292 8.88501C114.748 9.9416 114.976 11.0702 114.976 12.2709C114.976 13.4876 114.748 14.6082 114.292 15.6328C113.836 16.6413 113.2 17.4418 112.382 18.0341C111.564 18.6264 110.644 18.9227 109.623 18.9227C108.428 18.9227 107.39 18.6666 106.509 18.1542C105.629 17.6259 104.969 16.8014 104.529 15.6809L103.845 18.6826H99.3163C99.4112 15.6728 99.4581 12.5591 99.4581 9.34127C99.4581 6.09143 99.4112 2.97768 99.3163 0H104.647L104.576 2.95367C104.497 5.03483 104.458 6.89188 104.458 8.5248C104.882 7.43619 105.527 6.63574 106.392 6.12346C107.272 5.59516 108.325 5.331 109.552 5.331ZM107.147 14.8883C107.901 14.8883 108.499 14.6322 108.938 14.12C109.379 13.6077 109.599 12.9433 109.599 12.1268C109.599 11.3904 109.355 10.7981 108.867 10.3498C108.396 9.88557 107.807 9.65344 107.099 9.65344C106.737 9.65344 106.36 9.74149 105.967 9.91759C105.574 10.0777 105.236 10.3498 104.953 10.734C104.67 11.1023 104.529 11.5666 104.529 12.1268C104.529 13.1194 104.748 13.8318 105.189 14.264C105.629 14.6802 106.281 14.8883 107.147 14.8883Z" fill="#151515"/>
<path d="M125.885 11.4196L122 2.89775L123.503 1.2352L132.188 4.44921L130.385 6.44315L125.213 4.37274L127.678 9.43689L125.885 11.4196Z" fill="#151515"/>
<path d="M135.171 5.9844L137.079 7.4422L127.174 14.0682L125.453 12.6058L135.171 5.9844Z" fill="#151515"/>
<path d="M130.232 15.4741L138.921 18.6826L140.424 17.02L136.534 8.50373L134.731 10.4977L137.201 15.5562L132.024 13.4914L130.232 15.4741Z" fill="#151515"/>
</svg>
